<svg xmlns="http://www.w3.org/2000/svg" xml:space="preserve" width="283.464" height="283.465">
  <style>
    path {
      fill: #3C3C3B;
    }

    @media (prefers-color-scheme: dark) {
      path { fill: #ffffff; }
    }
  </style>
  <path d="m276.61 134.689-9.602-.738a1.62 1.62 0 0 0 .689-1.337l-.025-1.864a1.633 1.633 0 0 0-1.123-1.528l-4.814-1.584a117.439 117.439 0 0 0-.721-5.748l4.191-2.695c.533-.344.822-.964.736-1.595l-.25-1.844a1.635 1.635 0 0 0-1.299-1.385l-4.93-.985c-.426-1.903-.9-3.785-1.416-5.652l3.809-3.154a1.64 1.64 0 0 0 .541-1.67l-.471-1.803a1.631 1.631 0 0 0-1.455-1.217l-5.057-.391a119.097 119.097 0 0 0-2.072-5.406l3.434-3.622a1.628 1.628 0 0 0 .332-1.721l-.682-1.733a1.635 1.635 0 0 0-1.59-1.035l-5.059.219a123.098 123.098 0 0 0-2.715-5.119l2.971-4.005a1.63 1.63 0 0 0 .127-1.751l-.887-1.639a1.632 1.632 0 0 0-1.703-.833l-5.041.831a117.708 117.708 0 0 0-3.285-4.725l2.49-4.371a1.634 1.634 0 0 0-.086-1.753l-1.076-1.519a1.636 1.636 0 0 0-1.793-.625l-4.898 1.432a121.208 121.208 0 0 0-3.832-4.301l1.945-4.635a1.63 1.63 0 0 0-.297-1.73l-1.25-1.379a1.638 1.638 0 0 0-1.854-.404l-4.717 2.021a118.548 118.548 0 0 0-4.301-3.802l1.381-4.853a1.635 1.635 0 0 0-.502-1.682l-1.408-1.22a1.64 1.64 0 0 0-1.891-.178l-4.416 2.558a120.587 120.587 0 0 0-4.744-3.276l.781-4.949a1.629 1.629 0 0 0-.701-1.609l-1.543-1.042a1.635 1.635 0 0 0-1.896.049l-4.078 3.072a123.132 123.132 0 0 0-5.102-2.684l.178-5.009a1.631 1.631 0 0 0-.887-1.512l-1.658-.849a1.636 1.636 0 0 0-1.879.277l-3.652 3.513a117.844 117.844 0 0 0-5.416-2.057l-.42-4.962a1.631 1.631 0 0 0-1.064-1.395l-1.748-.644a1.631 1.631 0 0 0-1.828.501l-3.209 3.931c-1.857-.507-3.73-.97-5.619-1.389l-1.016-4.882a1.633 1.633 0 0 0-1.223-1.258l-1.814-.428a1.637 1.637 0 0 0-1.756.716l-2.713 4.285a118.8 118.8 0 0 0-5.744-.698l-1.594-4.728a1.634 1.634 0 0 0-1.367-1.101l-1.852-.208a1.636 1.636 0 0 0-1.657.923l-2.172 4.567a121.111 121.111 0 0 0-5.495-.033c-.522.01-1.037.054-1.559.07l-2.193-4.47a1.636 1.636 0 0 0-1.499-.915l-1.861.036a1.638 1.638 0 0 0-1.525 1.131l-1.554 4.808c-1.937.2-3.857.448-5.765.74l-2.7-4.153a1.633 1.633 0 0 0-1.597-.728l-1.844.261a1.634 1.634 0 0 0-1.378 1.306l-.953 4.889a121 121 0 0 0-5.696 1.439l-3.131-3.74a1.63 1.63 0 0 0-1.672-.53l-1.8.479a1.639 1.639 0 0 0-1.211 1.46l-.357 4.968a120.81 120.81 0 0 0-5.476 2.12l-3.564-3.342a1.632 1.632 0 0 0-1.725-.325l-1.729.691a1.635 1.635 0 0 0-1.024 1.598l.238 4.923a121.544 121.544 0 0 0-5.219 2.782l-3.9-2.859a1.632 1.632 0 0 0-1.751-.116l-1.634.896a1.63 1.63 0 0 0-.825 1.707l.832 4.876a120.522 120.522 0 0 0-4.835 3.384l-4.232-2.381a1.627 1.627 0 0 0-1.751.095l-1.514 1.084a1.633 1.633 0 0 0-.617 1.794l1.401 4.701a119.544 119.544 0 0 0-4.427 3.961l-4.441-1.837a1.634 1.634 0 0 0-1.727.305l-1.373 1.259a1.631 1.631 0 0 0-.396 1.855l1.956 4.502a119.546 119.546 0 0 0-3.917 4.462l-4.632-1.291a1.639 1.639 0 0 0-1.68.511l-1.211 1.414a1.639 1.639 0 0 0-.17 1.89l2.451 4.179a116.816 116.816 0 0 0-3.393 4.945l-4.68-.715a1.632 1.632 0 0 0-1.606.71l-1.034 1.549a1.634 1.634 0 0 0 .059 1.897l2.927 3.843a119.346 119.346 0 0 0-2.773 5.326l-4.726-.146a1.633 1.633 0 0 0-1.509.897l-.841 1.663a1.634 1.634 0 0 0 .287 1.874l3.321 3.418a121.204 121.204 0 0 0-2.134 5.672l-4.641.419a1.63 1.63 0 0 0-1.391 1.071l-.634 1.751a1.637 1.637 0 0 0 .509 1.829l3.709 2.993a120.053 120.053 0 0 0-1.424 5.884l-4.574.976a1.637 1.637 0 0 0-1.25 1.231l-.418 1.815a1.63 1.63 0 0 0 .725 1.752l4.021 2.515a120.947 120.947 0 0 0-.705 6.033l-4.405 1.511a1.63 1.63 0 0 0-1.094 1.371l-.198 1.852c-.021.195.001.384.047.567l-8.336.661 6.647 55.133 12.871 2.043.18.457a1.636 1.636 0 0 0 1.591 1.033l4.637-.201c.914 1.844 1.87 3.664 2.874 5.453l-2.711 3.652a1.64 1.64 0 0 0-.124 1.752l.885 1.637a1.634 1.634 0 0 0 1.704.836l4.596-.758a123.143 123.143 0 0 0 3.504 5.045l-2.265 3.977a1.638 1.638 0 0 0 .086 1.754l1.076 1.52c.403.568 1.124.82 1.793.623l4.466-1.303a118.853 118.853 0 0 0 4.085 4.602l-1.766 4.205c-.246.586-.13 1.26.296 1.73l1.253 1.381a1.634 1.634 0 0 0 1.853.404l4.29-1.838a121.39 121.39 0 0 0 4.601 4.063l-1.254 4.406a1.63 1.63 0 0 0 .502 1.682l1.41 1.221a1.627 1.627 0 0 0 1.886.18l4.021-2.328a118.166 118.166 0 0 0 5.069 3.504l-.71 4.492a1.634 1.634 0 0 0 .701 1.609l1.544 1.041c.578.391 1.34.371 1.897-.049l3.717-2.799a120.37 120.37 0 0 0 5.448 2.855l-.165 4.563a1.637 1.637 0 0 0 .889 1.516l1.657.848a1.64 1.64 0 0 0 1.878-.277l3.338-3.211c1.901.777 3.822 1.51 5.769 2.191l.382 4.523a1.635 1.635 0 0 0 1.063 1.396l1.751.643c.653.24 1.389.041 1.829-.5l2.945-3.607c1.967.537 3.957 1.023 5.965 1.461l.931 4.486c.13.623.607 1.113 1.225 1.26l1.812.428a1.636 1.636 0 0 0 1.758-.717l2.502-3.955c2.011.293 4.036.537 6.077.729l1.472 4.367a1.632 1.632 0 0 0 1.366 1.102l1.851.207a1.634 1.634 0 0 0 1.657-.922l2.021-4.25c1.781.043 3.568.068 5.367.033.667-.012 1.323-.064 1.986-.088l2.046 4.172a1.64 1.64 0 0 0 1.499.914l1.864-.037a1.628 1.628 0 0 0 1.521-1.131l1.459-4.506c2.023-.215 4.033-.477 6.025-.789l2.535 3.9c.346.531.969.816 1.598.727l1.846-.26a1.639 1.639 0 0 0 1.377-1.305l.898-4.629c1.99-.455 3.955-.963 5.904-1.516l2.975 3.557a1.636 1.636 0 0 0 1.674.529l1.801-.479a1.634 1.634 0 0 0 1.209-1.463l.344-4.744c1.904-.688 3.783-1.42 5.641-2.203l3.414 3.203a1.628 1.628 0 0 0 1.725.324l1.729-.691a1.629 1.629 0 0 0 1.025-1.596l-.232-4.742a115.258 115.258 0 0 0 5.336-2.875l3.777 2.771c.51.375 1.193.418 1.75.115l1.635-.895a1.635 1.635 0 0 0 .826-1.707l-.813-4.76a117.747 117.747 0 0 0 4.898-3.453l4.146 2.332a1.638 1.638 0 0 0 1.754-.094l1.514-1.086a1.635 1.635 0 0 0 .615-1.793l-1.379-4.629a119.903 119.903 0 0 0 4.445-4.018l4.4 1.82a1.63 1.63 0 0 0 1.727-.305l1.375-1.26a1.635 1.635 0 0 0 .395-1.855l-1.951-4.492a120.416 120.416 0 0 0 3.902-4.473l4.641 1.293a1.633 1.633 0 0 0 1.68-.512l1.215-1.414c.453-.529.52-1.289.168-1.889l-2.471-4.213a118.8 118.8 0 0 0 3.342-4.922l4.754.727a1.637 1.637 0 0 0 1.604-.709l1.033-1.551a1.627 1.627 0 0 0-.061-1.896l-2.986-3.924a117.829 117.829 0 0 0 2.424-4.688l3.061-.477 2.076.063c.508.018.977-.209 1.293-.588l12.695-1.975 7.432-55.147zM140.019 28.257c60.019-1.159 109.821 45.301 113.472 104.654l-44.104-3.393-2.191-32.613h-10.982l-1.939 28.87-32.553-9.51-2.799-48.078h-16.598l-2.428 41.703-29.111-8.504-3.399-47.752H82.551l-10.033 75.978-41.694 3.31c3.505-57.47 50.627-103.533 109.195-104.665m4.311 223.145c-42.504.822-79.898-22.242-99.41-56.85l27.094 4.301v7.43l68.849 18.754 68.845-18.754v-7.188l29.783-4.635c-18.752 33.333-54.157 56.151-95.161 56.942m23.909-52.248h-54.036l-.003-.002-93.347-14.818-5.288-43.863 111.286-8.843 2.619-.189 22.916.032h.008l117.062 9.004-5.908 43.845-95.309 14.834z"/>
  <path d="M46.563 172.335h-4.126v-14.563l-4.733 11.075h-3.155l-4.733-11.075v14.563H25.69v-21.844h4.792l5.644 12.803 5.642-12.803h4.795zm4.784-21.844h4.369v21.844h-4.369zm13.469 16.262v5.582h-4.309v-21.844h4.309v10.255l7.554-10.255h5.127l-6.705 8.617 7.039 13.227h-4.915l-5.036-9.496zm27.267 5.582-3.519-8.1h-3.519v8.1h-4.369v-21.844h11.135c2.548 0 4.308 1.76 4.308 4.309v5.126c0 2.063-1.153 3.611-2.973 4.126l3.64 8.283h-4.703zm-.333-16.686c0-.667-.364-1.032-1.032-1.032h-5.673v5.552h5.673c.668 0 1.032-.364 1.032-1.03v-3.49zm19.745-5.279c2.548 0 4.309 1.76 4.309 4.309v13.47c0 2.547-1.761 4.307-4.309 4.307h-7.312c-2.548 0-4.308-1.76-4.308-4.307v-13.47c0-2.549 1.76-4.309 4.308-4.309h7.312zm-.06 5.158c0-.667-.364-1.032-1.033-1.032h-5.126c-.668 0-1.032.365-1.032 1.032V167.3c0 .667.364 1.031 1.032 1.031h5.126c.669 0 1.033-.364 1.033-1.031v-11.772zm8.639-5.037h14.29v4.126h-9.921v4.673h8.04v4.126h-8.04v8.919h-4.369zm18.563 21.844h-4.521l7.039-21.844h5.098l7.038 21.844h-4.702l-1.425-4.915h-7.07l-1.457 4.915zm2.67-9.041h4.671l-2.306-8.009-2.365 8.009zm25.901-12.803c2.551 0 4.311 1.76 4.311 4.308v3.095c0 1.304-.518 2.458-1.91 3.277 1.516.728 2.152 1.972 2.152 3.276v3.58c0 2.548-1.76 4.308-4.309 4.308h-11.287v-21.844h11.043zm-1.092 8.738c.791 0 1.033-.182 1.033-1.032v-2.609c0-.667-.363-1.031-1.033-1.031h-5.582v4.672h5.582zm.244 9.041c.668 0 1.033-.364 1.033-1.032v-3.155c0-.91-.549-.971-1.398-.971h-5.461v5.158h5.826zm20.896 4.065-3.518-8.1h-3.52v8.1h-4.369v-21.844h11.135c2.547 0 4.309 1.76 4.309 4.309v5.126c0 2.063-1.154 3.611-2.975 4.126l3.641 8.283h-4.703zm-.332-16.686c0-.667-.363-1.032-1.033-1.032h-5.672v5.552h5.672c.67 0 1.033-.364 1.033-1.03v-3.49zm8.639-5.158h4.369v21.844h-4.369zm13.469 16.262v5.582h-4.309v-21.844h4.309v10.255l7.552-10.255h5.129l-6.705 8.617 7.039 13.227h-4.916l-5.035-9.496zm30.15-16.262v4.126h-9.922v4.49h8.041v4.126h-8.041v4.976h9.922v4.126h-14.289v-21.844zm20.688 0v21.844h-4.705l-8.04-14.896v14.896h-4.095v-21.844h4.703l8.039 14.896v-14.896z"/>
</svg>
